<svg xmlns="http://www.w3.org/2000/svg" width="60" height="80" viewBox="0 0 60 80">
  <!-- Cuerpo -->
  <ellipse cx="30" cy="45" rx="18" ry="20" fill="#5d4037" stroke="#3e2723" stroke-width="2"/>
  
  <!-- Cabeza y casco -->
  <ellipse cx="30" cy="25" rx="15" ry="14" fill="#ffb74d" stroke="#3e2723" stroke-width="2"/>
  <path d="M15 30 L20 23 L40 23 L45 30" fill="#bf360c" stroke="#3e2723" stroke-width="2"/>
  
  <!-- Casco -->
  <path d="M20 20 Q30 10 40 20" fill="none" stroke="#bf360c" stroke-width="4"/>
  
  <!-- Ojos -->
  <ellipse cx="24" cy="25" rx="3" ry="4" fill="#fff"/>
  <ellipse cx="36" cy="25" rx="3" ry="4" fill="#fff"/>
  <ellipse cx="24" cy="25" rx="1.5" ry="2" fill="#000"/>
  <ellipse cx="36" cy="25" rx="1.5" ry="2" fill="#000"/>
  
  <!-- Boca -->
  <path d="M26 32 Q30 36 34 32" fill="none" stroke="#3e2723" stroke-width="1.5"/>
  
  <!-- Espada -->
  <rect x="10" y="45" width="4" height="15" fill="#795548" transform="rotate(-30 10 45)"/>
  <polygon points="5,32 15,42 12,45 2,35" fill="#9e9e9e" stroke="#424242" stroke-width="1"/>
  
  <!-- Escudo -->
  <path d="M45 45 Q55 40 45 55" fill="#5d4037" stroke="#3e2723" stroke-width="2"/>
  <circle cx="47" cy="48" r="3" fill="#bf360c" stroke="#3e2723" stroke-width="1"/>
  
  <!-- Armadura -->
  <path d="M24 45 L36 45 L34 55 L26 55 Z" fill="#9e9e9e" stroke="#424242" stroke-width="1"/>
</svg> 